<svg width="396" height="86" viewBox="0 0 396 86" fill="none" xmlns="http://www.w3.org/2000/svg">
<g filter="url(#filter0_d_41_338)">
<path d="M105.192 60L95.912 32H101.312L109.592 57.32H106.912L115.512 32H120.312L128.672 57.32H126.072L134.552 32H139.512L130.232 60H124.712L117.072 37.16H118.512L110.752 60H105.192ZM140.89 60L153.49 32H158.61L171.25 60H165.81L154.97 34.76H157.05L146.25 60H140.89ZM146.69 53.52L148.09 49.44H163.21L164.61 53.52H146.69ZM185.491 60.4C183.304 60.4 181.211 60.0933 179.211 59.48C177.211 58.84 175.624 58.0267 174.451 57.04L176.251 53C177.371 53.88 178.757 54.6133 180.411 55.2C182.064 55.7867 183.757 56.08 185.491 56.08C186.957 56.08 188.144 55.92 189.051 55.6C189.957 55.28 190.624 54.8533 191.051 54.32C191.477 53.76 191.691 53.1333 191.691 52.44C191.691 51.5867 191.384 50.9067 190.771 50.4C190.157 49.8667 189.357 49.4533 188.371 49.16C187.411 48.84 186.331 48.5467 185.131 48.28C183.957 48.0133 182.771 47.7067 181.571 47.36C180.397 46.9867 179.317 46.52 178.331 45.96C177.371 45.3733 176.584 44.6 175.971 43.64C175.357 42.68 175.051 41.4533 175.051 39.96C175.051 38.44 175.451 37.0533 176.251 35.8C177.077 34.52 178.317 33.5067 179.971 32.76C181.651 31.9867 183.771 31.6 186.331 31.6C188.011 31.6 189.677 31.8133 191.331 32.24C192.984 32.6667 194.424 33.28 195.651 34.08L194.011 38.12C192.757 37.3733 191.464 36.8267 190.131 36.48C188.797 36.1067 187.517 35.92 186.291 35.92C184.851 35.92 183.677 36.0933 182.771 36.44C181.891 36.7867 181.237 37.24 180.811 37.8C180.411 38.36 180.211 39 180.211 39.72C180.211 40.5733 180.504 41.2667 181.091 41.8C181.704 42.3067 182.491 42.7067 183.451 43C184.437 43.2933 185.531 43.5867 186.731 43.88C187.931 44.1467 189.117 44.4533 190.291 44.8C191.491 45.1467 192.571 45.6 193.531 46.16C194.517 46.72 195.304 47.48 195.891 48.44C196.504 49.4 196.811 50.6133 196.811 52.08C196.811 53.5733 196.397 54.96 195.571 56.24C194.771 57.4933 193.531 58.5067 191.851 59.28C190.171 60.0267 188.051 60.4 185.491 60.4ZM209.256 60V36.4H199.976V32H223.736V36.4H214.456V60H209.256ZM234.439 43.64H248.359V47.92H234.439V43.64ZM234.839 55.64H250.639V60H229.639V32H250.079V36.36H234.839V55.64ZM264.645 60L255.365 32H260.765L269.045 57.32H266.365L274.965 32H279.765L288.125 57.32H285.525L294.005 32H298.965L289.685 60H284.165L276.525 37.16H277.965L270.205 60H264.645ZM305.201 60V32H310.401V60H305.201ZM328.655 60.4C326.468 60.4 324.375 60.0933 322.375 59.48C320.375 58.84 318.788 58.0267 317.615 57.04L319.415 53C320.535 53.88 321.922 54.6133 323.575 55.2C325.228 55.7867 326.922 56.08 328.655 56.08C330.122 56.08 331.308 55.92 332.215 55.6C333.122 55.28 333.788 54.8533 334.215 54.32C334.642 53.76 334.855 53.1333 334.855 52.44C334.855 51.5867 334.548 50.9067 333.935 50.4C333.322 49.8667 332.522 49.4533 331.535 49.16C330.575 48.84 329.495 48.5467 328.295 48.28C327.122 48.0133 325.935 47.7067 324.735 47.36C323.562 46.9867 322.482 46.52 321.495 45.96C320.535 45.3733 319.748 44.6 319.135 43.64C318.522 42.68 318.215 41.4533 318.215 39.96C318.215 38.44 318.615 37.0533 319.415 35.8C320.242 34.52 321.482 33.5067 323.135 32.76C324.815 31.9867 326.935 31.6 329.495 31.6C331.175 31.6 332.842 31.8133 334.495 32.24C336.148 32.6667 337.588 33.28 338.815 34.08L337.175 38.12C335.922 37.3733 334.628 36.8267 333.295 36.48C331.962 36.1067 330.682 35.92 329.455 35.92C328.015 35.92 326.842 36.0933 325.935 36.44C325.055 36.7867 324.402 37.24 323.975 37.8C323.575 38.36 323.375 39 323.375 39.72C323.375 40.5733 323.668 41.2667 324.255 41.8C324.868 42.3067 325.655 42.7067 326.615 43C327.602 43.2933 328.695 43.5867 329.895 43.88C331.095 44.1467 332.282 44.4533 333.455 44.8C334.655 45.1467 335.735 45.6 336.695 46.16C337.682 46.72 338.468 47.48 339.055 48.44C339.668 49.4 339.975 50.6133 339.975 52.08C339.975 53.5733 339.562 54.96 338.735 56.24C337.935 57.4933 336.695 58.5067 335.015 59.28C333.335 60.0267 331.215 60.4 328.655 60.4ZM351.931 43.64H365.851V47.92H351.931V43.64ZM352.331 55.64H368.131V60H347.131V32H367.571V36.36H352.331V55.64Z" fill="#393939"/>
</g>
<path d="M0.143771 41.0986C0.561015 39.4296 3.2731 34.1097 6.0895 29.4158C9.01021 24.6174 11.4094 20.7579 11.618 20.7579C11.7223 20.7579 11.5137 22.5312 11.0964 24.7218C10.5749 26.808 10.1576 31.502 10.1576 35.1529C10.1576 39.6382 10.9921 43.8107 12.8697 48.7133C14.3301 52.5728 17.5637 58.7272 19.9629 62.4824C22.4663 66.2376 26.3258 70.8272 28.5164 72.8092C30.8112 74.7911 35.4009 77.7118 38.8432 79.2764C42.2854 80.9454 48.1269 82.6144 58.6623 83.9704L51.882 84.8049C47.7096 85.2222 41.6596 85.1179 36.2354 84.2834C31.3328 83.6575 26.6388 82.4058 25.8043 81.6756C24.9698 80.9454 23.6138 80.2152 22.8836 80.2152C22.2577 80.2152 21.006 78.9635 20.2758 77.5031C19.2327 75.2083 18.2939 74.6867 14.7473 74.5824C11.9309 74.4781 9.53176 73.7479 8.17572 72.3919C6.92399 71.2445 5.88088 69.9927 5.98519 69.5755C5.98519 69.054 6.61106 69.0539 7.23692 69.3669C7.9671 69.6798 10.2619 69.4712 12.2439 68.8453C14.2258 68.3238 16.2077 67.1763 16.6249 66.4462C17.0422 65.6117 16.2077 64.047 14.5387 62.378C12.974 60.9177 9.53176 57.997 6.71537 55.9108C3.37741 53.303 1.3955 50.7995 0.665326 48.1917C0.0394602 46.0012 -0.169162 42.8719 0.143771 41.0986Z" fill="url(#paint0_linear_41_338)"/>
<path d="M31.5413 3.54658C33.8362 2.50346 37.5914 1.25173 39.8862 0.834488C42.181 0.521555 44.2673 0.104311 44.4759 0C44.6845 0 44.1629 0.730177 43.3285 1.66898C42.494 2.71209 41.1379 5.21555 40.4078 7.19746C39.2603 10.2225 39.2603 12.1001 40.4078 18.1501C41.5552 24.4088 41.5552 25.8691 40.3034 28.0597C39.3646 29.6243 36.131 31.7106 31.1241 33.7968C26.3258 35.7787 22.5706 38.0735 21.2145 39.8468C19.7542 41.8287 19.1283 44.1236 19.2326 46.627C19.3369 48.7133 19.9628 51.0081 20.5887 51.5297C21.3188 52.2598 21.6318 51.9469 21.6318 50.6952C21.6318 49.7564 22.3619 47.4615 23.1964 45.7925C24.0309 44.1236 25.8042 42.3503 27.1603 42.0373C28.412 41.7244 31.0198 42.1417 32.8974 43.0805C34.6706 44.0193 37.1741 44.7494 38.3215 44.7494C39.9905 44.7494 40.3034 45.271 39.7819 47.0443C39.469 48.4003 37.8 50.6952 36.131 52.2598C34.462 53.9288 32.5844 56.1193 32.0629 57.2668C31.5413 58.4142 31.0198 60.9176 31.0198 62.6909C31.0198 64.5685 31.5413 66.8634 32.0629 67.6979C32.8974 69.0539 33.106 68.9496 33.6275 67.1763C34.0448 66.0289 35.1922 63.1082 36.3396 60.6047C37.8 57.2668 39.0517 56.015 41.5552 55.3892C43.3285 54.9719 44.9974 54.3461 45.2061 53.8245C45.4147 53.4072 46.1449 53.0943 46.6664 53.0943C47.188 53.0943 47.7095 54.5547 47.7095 56.2237C47.7095 57.8926 46.7707 60.6047 45.6233 62.1694C44.3716 63.8384 43.7457 65.9246 44.0586 66.8634C44.3716 67.9065 45.1017 68.741 45.6233 68.741C46.1449 68.741 47.5009 68.2194 48.544 67.4892C50.0044 66.5504 51.1518 66.8634 55.0113 69.5755C57.6191 71.3487 62.1044 73.3307 64.9208 73.9565C67.8415 74.5824 72.2226 74.791 74.8304 74.4781C77.4382 74.0608 80.2546 73.435 81.0891 73.122C82.2365 72.8091 82.3408 72.9134 81.6106 73.7479C81.0891 74.4781 77.0209 76.2514 72.7442 77.7117C66.6941 79.7979 63.0432 80.4238 56.576 80.4238C50.6302 80.4238 46.4578 79.6936 41.9724 78.0247C37.1741 76.2514 34.1491 74.0608 28.9335 68.8453C25.1783 65.0901 20.5887 59.1444 18.8154 55.7021C16.9378 52.2598 14.7472 46.627 13.9128 43.1848C12.974 39.7425 12.2438 35.4658 12.2438 33.7968C12.2438 32.1278 13.1826 27.5381 14.33 23.5743C15.999 17.9415 17.4593 15.5423 21.8404 11.057C24.8654 8.03195 29.2465 4.694 31.5413 3.54658Z" fill="url(#paint1_linear_41_338)"/>
<defs>
<filter id="filter0_d_41_338" x="91.912" y="31.6" width="280.219" height="36.8" filterUnits="userSpaceOnUse" color-interpolation-filters="sRGB">
<feFlood flood-opacity="0" result="BackgroundImageFix"/>
<feColorMatrix in="SourceAlpha" type="matrix" values="0 0 0 0 0 0 0 0 0 0 0 0 0 0 0 0 0 0 127 0" result="hardAlpha"/>
<feOffset dy="4"/>
<feGaussianBlur stdDeviation="2"/>
<feComposite in2="hardAlpha" operator="out"/>
<feColorMatrix type="matrix" values="0 0 0 0 0 0 0 0 0 0 0 0 0 0 0 0 0 0 0.25 0"/>
<feBlend mode="normal" in2="BackgroundImageFix" result="effect1_dropShadow_41_338"/>
<feBlend mode="normal" in="SourceGraphic" in2="effect1_dropShadow_41_338" result="shape"/>
</filter>
<linearGradient id="paint0_linear_41_338" x1="7.45432" y1="47.3223" x2="57.6052" y2="92.1616" gradientUnits="userSpaceOnUse">
<stop stop-color="#10ACE6"/>
<stop offset="1" stop-color="#10E64A"/>
</linearGradient>
<linearGradient id="paint1_linear_41_338" x1="21.1172" y1="33.2332" x2="83.4356" y2="86.2491" gradientUnits="userSpaceOnUse">
<stop stop-color="#10ACE6"/>
<stop offset="1" stop-color="#10E64A"/>
</linearGradient>
</defs>
</svg>
